<svg width="1000" height="1000" viewBox="0 0 1000 1000" fill="none" xmlns="http://www.w3.org/2000/svg">
<path d="M854.521 25C854.521 55.9309 842.234 85.5949 820.363 107.466C798.491 129.338 768.827 141.625 737.896 141.625H315.13C277.523 141.625 241.457 156.564 214.865 183.156C188.273 209.748 173.334 245.815 173.334 283.422V441.643H242.628V558.268H57V256.987C57 226.539 62.9986 196.39 74.6534 168.261C86.3081 140.133 103.39 114.576 124.925 93.0504C146.459 71.5253 172.023 54.4535 200.157 42.8106C228.29 31.1676 258.442 25.1817 288.89 25.1944L854.521 25Z" fill="url(#paint0_linear_65_81)"/>
<path d="M942.479 441.44V742.722C942.543 773.202 936.595 803.396 924.975 831.574C913.354 859.753 896.291 885.363 874.76 906.938C853.23 928.513 827.656 945.631 799.502 957.31C771.348 968.989 741.167 975 710.687 975H154.773C154.773 944.069 167.061 914.405 188.932 892.534C210.804 870.662 240.468 858.375 271.399 858.375H684.446C722.053 858.375 758.119 843.436 784.711 816.844C811.303 790.252 826.243 754.185 826.243 716.578V558.066H757.045V441.44H942.479Z" fill="white"/>
<path d="M500.102 450.945V214.086L803.75 740.008H666.998L500.102 450.945Z" fill="url(#paint1_linear_65_81)"/>
<path d="M713.925 584.43C692.015 619.441 661.881 648.567 626.146 669.274L667.041 740.008H803.792L713.925 584.43Z" fill="url(#paint2_linear_65_81)"/>
<path d="M509.688 245.115L507.483 246.388L787.948 732.167L790.152 730.894L509.688 245.115Z" fill="url(#paint3_linear_65_81)"/>
<path d="M333.201 740.008H196.449L500.089 214.086V450.945L333.201 740.008Z" fill="white"/>
<path d="M286.274 584.43L196.449 740.008L333.192 740.008L374.045 669.257C338.313 648.555 308.182 619.434 286.274 584.43Z" fill="white"/>
<path d="M490.51 245.111L210.046 730.89L212.25 732.163L492.714 246.384L490.51 245.111Z" fill="white"/>
<defs>
<linearGradient id="paint0_linear_65_81" x1="854.426" y1="7.3985" x2="47.8166" y2="558.403" gradientUnits="userSpaceOnUse">
<stop stop-color="#0E69F1"/>
<stop offset="1" stop-color="#0E95F6"/>
</linearGradient>
<linearGradient id="paint1_linear_65_81" x1="500.094" y1="310.46" x2="791.667" y2="739.785" gradientUnits="userSpaceOnUse">
<stop stop-color="#0E69F1"/>
<stop offset="1" stop-color="#0E95F6"/>
</linearGradient>
<linearGradient id="paint2_linear_65_81" x1="500.094" y1="310.46" x2="791.667" y2="739.785" gradientUnits="userSpaceOnUse">
<stop stop-color="#0E69F1"/>
<stop offset="1" stop-color="#0E95F6"/>
</linearGradient>
<linearGradient id="paint3_linear_65_81" x1="500.094" y1="310.46" x2="791.667" y2="739.785" gradientUnits="userSpaceOnUse">
<stop stop-color="#0E69F1"/>
<stop offset="1" stop-color="#0E95F6"/>
</linearGradient>
</defs>
</svg>
